<!-- network-wireless-hardware-disabled-symbolic - generated by desktop/branding/src/icons.py; edit that, not this.
     Wi-Fi switched off. -->
<svg xmlns="http://www.w3.org/2000/svg" viewBox="0 0 16 16" width="16" height="16">
  <defs><clipPath id="cut"><path clip-rule="evenodd" d="M-1 -1H17V17H-1ZM0.227 2.773L13.227 15.773A1.8 1.8 0 0 0 15.773 13.227L2.773 0.227A1.8 1.8 0 0 0 0.227 2.773Z"/></clipPath></defs>
  <path fill="#bebebe" opacity=".35" clip-path="url(#cut)" d="M10.12 11.103A3.2 3.2 0 0 0 5.88 11.103L8 13.5Z"/>
  <path fill="#bebebe" opacity=".35" clip-path="url(#cut)" d="M12.373 8.557A6.6 6.6 0 0 0 3.627 8.557L4.952 10.055A4.6 4.6 0 0 1 11.048 10.055Z"/>
  <path fill="#bebebe" opacity=".35" clip-path="url(#cut)" d="M14.626 6.01A10 10 0 0 0 1.374 6.01L2.699 7.508A8 8 0 0 1 13.301 7.508Z"/>
  <path fill="#bebebe" opacity=".35" clip-path="url(#cut)" d="M16.879 3.464A13.4 13.4 0 0 0 -0.879 3.464L0.446 4.962A11.4 11.4 0 0 1 15.554 4.962Z"/>
  <path fill="#bebebe" d="M1.934 3.066L12.934 14.066A0.8 0.8 0 0 0 14.066 12.934L3.066 1.934A0.8 0.8 0 0 0 1.934 3.066Z"/>
</svg>
