<!-- window-restore-symbolic - generated by desktop/branding/src/icons.py; edit that, not this.
     Restore a maximised window. -->
<svg xmlns="http://www.w3.org/2000/svg" viewBox="0 0 16 16" width="16" height="16">
  <path fill="#bebebe" d="M7 5L12 5A1 1 0 0 0 12 3L7 3A1 1 0 0 0 7 5Z"/>
  <path fill="#bebebe" d="M11 4L11 9A1 1 0 0 0 13 9L13 4A1 1 0 0 0 11 4Z"/>
  <path fill="#bebebe" fill-rule="evenodd" d="M4.5 6H8.5A1.5 1.5 0 0 1 10 7.5V11.5A1.5 1.5 0 0 1 8.5 13H4.5A1.5 1.5 0 0 1 3 11.5V7.5A1.5 1.5 0 0 1 4.5 6ZM5.25 8H7.75A0.25 0.25 0 0 1 8 8.25V10.75A0.25 0.25 0 0 1 7.75 11H5.25A0.25 0.25 0 0 1 5 10.75V8.25A0.25 0.25 0 0 1 5.25 8Z"/>
</svg>
