<!-- accessories-calculator - generated by desktop/branding/src/icons.py; edit that, not this.
     Calculator. -->
<svg xmlns="http://www.w3.org/2000/svg" viewBox="0 0 128 128" width="128" height="128">
  <defs>
    <linearGradient id="accessories_calculator_bg" x1="0" y1="0" x2=".35" y2="1">
      <stop offset="0" stop-color="#555b69"/>
      <stop offset="1" stop-color="#23262d"/>
    </linearGradient>
    <linearGradient id="accessories_calculator_hl" x1="0" y1="0" x2="0" y2="1">
      <stop offset="0" stop-color="#fff" stop-opacity="0.3"/>
      <stop offset=".5" stop-color="#fff" stop-opacity="0"/>
    </linearGradient>
    <clipPath id="accessories_calculator_clip"><path d="M34 8H94A26 26 0 0 1 120 34V94A26 26 0 0 1 94 120H34A26 26 0 0 1 8 94V34A26 26 0 0 1 34 8Z"/></clipPath>
  </defs>
  <path fill="url(#accessories_calculator_bg)" d="M34 8H94A26 26 0 0 1 120 34V94A26 26 0 0 1 94 120H34A26 26 0 0 1 8 94V34A26 26 0 0 1 34 8Z"/>
  <path fill="url(#accessories_calculator_hl)" fill-rule="evenodd" d="M34 8H94A26 26 0 0 1 120 34V94A26 26 0 0 1 94 120H34A26 26 0 0 1 8 94V34A26 26 0 0 1 34 8ZM34 9.5H94A24.5 24.5 0 0 1 118.5 34V94A24.5 24.5 0 0 1 94 118.5H34A24.5 24.5 0 0 1 9.5 94V34A24.5 24.5 0 0 1 34 9.5Z"/>
  <g opacity=".18" transform="translate(0 2)">
    <path d="M32 44H56M44 32V56" fill="none" stroke="#000" stroke-width="8" stroke-linecap="round" stroke-linejoin="round"/>
    <path d="M72 44H96" fill="none" stroke="#000" stroke-width="8" stroke-linecap="round" stroke-linejoin="round"/>
    <path d="M35 75L53 93M53 75L35 93" fill="none" stroke="#000" stroke-width="8" stroke-linecap="round" stroke-linejoin="round"/>
    <path d="M72 78H96M72 90H96" fill="none" stroke="#000" stroke-width="8" stroke-linecap="round" stroke-linejoin="round"/>
  </g>
    <path d="M32 44H56M44 32V56" fill="none" stroke="#ffffff" stroke-width="8" stroke-linecap="round" stroke-linejoin="round"/>
    <path d="M72 44H96" fill="none" stroke="#ffffff" stroke-width="8" stroke-linecap="round" stroke-linejoin="round"/>
    <path d="M35 75L53 93M53 75L35 93" fill="none" stroke="#ffffff" stroke-width="8" stroke-linecap="round" stroke-linejoin="round"/>
    <path d="M72 78H96M72 90H96" fill="none" stroke="#f28c28" stroke-width="8" stroke-linecap="round" stroke-linejoin="round"/>
</svg>
