<!-- accessories-text-editor - generated by desktop/branding/src/icons.py; edit that, not this.
     Text editor. -->
<svg xmlns="http://www.w3.org/2000/svg" viewBox="0 0 128 128" width="128" height="128">
  <defs>
    <linearGradient id="accessories_text_editor_bg" x1="0" y1="0" x2=".35" y2="1">
      <stop offset="0" stop-color="#3fdcc7"/>
      <stop offset="1" stop-color="#0d8a8c"/>
    </linearGradient>
    <linearGradient id="accessories_text_editor_hl" x1="0" y1="0" x2="0" y2="1">
      <stop offset="0" stop-color="#fff" stop-opacity="0.3"/>
      <stop offset=".5" stop-color="#fff" stop-opacity="0"/>
    </linearGradient>
    <clipPath id="accessories_text_editor_clip"><path d="M34 8H94A26 26 0 0 1 120 34V94A26 26 0 0 1 94 120H34A26 26 0 0 1 8 94V34A26 26 0 0 1 34 8Z"/></clipPath>
  </defs>
  <path fill="url(#accessories_text_editor_bg)" d="M34 8H94A26 26 0 0 1 120 34V94A26 26 0 0 1 94 120H34A26 26 0 0 1 8 94V34A26 26 0 0 1 34 8Z"/>
  <path fill="url(#accessories_text_editor_hl)" fill-rule="evenodd" d="M34 8H94A26 26 0 0 1 120 34V94A26 26 0 0 1 94 120H34A26 26 0 0 1 8 94V34A26 26 0 0 1 34 8ZM34 9.5H94A24.5 24.5 0 0 1 118.5 34V94A24.5 24.5 0 0 1 94 118.5H34A24.5 24.5 0 0 1 9.5 94V34A24.5 24.5 0 0 1 34 9.5Z"/>
  <g opacity=".18" transform="translate(0 2)">
    <path d="M41 26H72L88 42V91a7 7 0 0 1-7 7H41a7 7 0 0 1-7-7V33a7 7 0 0 1 7-7Z" fill="#000"/>
    <path d="M100 60L70 90" fill="none" stroke="#000" stroke-width="17" stroke-linecap="round" stroke-linejoin="round"/>
    <path d="M100 60L70 90" fill="none" stroke="#000" stroke-width="10" stroke-linecap="round" stroke-linejoin="round"/>
    <path d="M66.2 84.6L75.4 93.8L63 97Z" fill="#000"/>
  </g>
    <path d="M41 26H72L88 42V91a7 7 0 0 1-7 7H41a7 7 0 0 1-7-7V33a7 7 0 0 1 7-7Z" fill="#ffffff"/>
    <path d="M46 50H62" fill="none" stroke="#1aa3a0" stroke-width="6" stroke-linecap="round" stroke-linejoin="round"/>
    <path d="M46 61H76" fill="none" stroke="#1aa3a0" stroke-width="6" stroke-linecap="round" stroke-linejoin="round"/>
    <path d="M46 72H64" fill="none" stroke="#1aa3a0" stroke-width="6" stroke-linecap="round" stroke-linejoin="round"/>
    <path d="M46 83H72" fill="none" stroke="#1aa3a0" stroke-width="6" stroke-linecap="round" stroke-linejoin="round"/>
    <path d="M100 60L70 90" fill="none" stroke="#1f2937" stroke-width="17" stroke-linecap="round" stroke-linejoin="round"/>
    <path d="M100 60L70 90" fill="none" stroke="#ffc53d" stroke-width="10" stroke-linecap="round" stroke-linejoin="round"/>
    <path d="M66.2 84.6L75.4 93.8L63 97Z" fill="#1f2937"/>
</svg>
