<!-- office-calendar - generated by desktop/branding/src/icons.py; edit that, not this.
     Calendar. -->
<svg xmlns="http://www.w3.org/2000/svg" viewBox="0 0 128 128" width="128" height="128">
  <defs>
    <linearGradient id="office_calendar_bg" x1="0" y1="0" x2=".35" y2="1">
      <stop offset="0" stop-color="#ffffff"/>
      <stop offset="1" stop-color="#e3e5ea"/>
    </linearGradient>
    <linearGradient id="office_calendar_hl" x1="0" y1="0" x2="0" y2="1">
      <stop offset="0" stop-color="#fff" stop-opacity="0.3"/>
      <stop offset=".5" stop-color="#fff" stop-opacity="0"/>
    </linearGradient>
    <clipPath id="office_calendar_clip"><path d="M34 8H94A26 26 0 0 1 120 34V94A26 26 0 0 1 94 120H34A26 26 0 0 1 8 94V34A26 26 0 0 1 34 8Z"/></clipPath>
    <linearGradient id="office_calendar_red" x1="0" y1="0" x2=".35" y2="1">
      <stop offset="0" stop-color="#ff6464"/>
      <stop offset="1" stop-color="#d92735"/>
    </linearGradient>
  </defs>
  <path fill="url(#office_calendar_bg)" d="M34 8H94A26 26 0 0 1 120 34V94A26 26 0 0 1 94 120H34A26 26 0 0 1 8 94V34A26 26 0 0 1 34 8Z"/>
  <g clip-path="url(#office_calendar_clip)">
    <path d="M0 0H128V46H0Z" fill="url(#office_calendar_red)"/>
  </g>
  <path fill="url(#office_calendar_hl)" fill-rule="evenodd" d="M34 8H94A26 26 0 0 1 120 34V94A26 26 0 0 1 94 120H34A26 26 0 0 1 8 94V34A26 26 0 0 1 34 8ZM34 9.5H94A24.5 24.5 0 0 1 118.5 34V94A24.5 24.5 0 0 1 94 118.5H34A24.5 24.5 0 0 1 9.5 94V34A24.5 24.5 0 0 1 34 9.5Z"/>
    <path d="M46 22H46A4 4 0 0 1 50 26V34A4 4 0 0 1 46 38H46A4 4 0 0 1 42 34V26A4 4 0 0 1 46 22Z" fill="#ffffff" opacity=".9"/>
    <path d="M82 22H82A4 4 0 0 1 86 26V34A4 4 0 0 1 82 38H82A4 4 0 0 1 78 34V26A4 4 0 0 1 82 22Z" fill="#ffffff" opacity=".9"/>
    <path d="M34 57H40A3 3 0 0 1 43 60V64A3 3 0 0 1 40 67H34A3 3 0 0 1 31 64V60A3 3 0 0 1 34 57Z" fill="#3a3f4b" opacity=".7"/>
    <path d="M52 57H58A3 3 0 0 1 61 60V64A3 3 0 0 1 58 67H52A3 3 0 0 1 49 64V60A3 3 0 0 1 52 57Z" fill="#3a3f4b" opacity=".7"/>
    <path d="M70 57H76A3 3 0 0 1 79 60V64A3 3 0 0 1 76 67H70A3 3 0 0 1 67 64V60A3 3 0 0 1 70 57Z" fill="#3a3f4b" opacity=".7"/>
    <path d="M88 57H94A3 3 0 0 1 97 60V64A3 3 0 0 1 94 67H88A3 3 0 0 1 85 64V60A3 3 0 0 1 88 57Z" fill="#3a3f4b" opacity=".7"/>
    <path d="M34 73H40A3 3 0 0 1 43 76V80A3 3 0 0 1 40 83H34A3 3 0 0 1 31 80V76A3 3 0 0 1 34 73Z" fill="#3a3f4b" opacity=".7"/>
    <path d="M52 73H58A3 3 0 0 1 61 76V80A3 3 0 0 1 58 83H52A3 3 0 0 1 49 80V76A3 3 0 0 1 52 73Z" fill="#3a3f4b" opacity=".7"/>
    <path d="M70 73H76A3 3 0 0 1 79 76V80A3 3 0 0 1 76 83H70A3 3 0 0 1 67 80V76A3 3 0 0 1 70 73Z" fill="#d9731a"/>
    <path d="M88 73H94A3 3 0 0 1 97 76V80A3 3 0 0 1 94 83H88A3 3 0 0 1 85 80V76A3 3 0 0 1 88 73Z" fill="#3a3f4b" opacity=".7"/>
    <path d="M34 89H40A3 3 0 0 1 43 92V96A3 3 0 0 1 40 99H34A3 3 0 0 1 31 96V92A3 3 0 0 1 34 89Z" fill="#3a3f4b" opacity=".7"/>
    <path d="M52 89H58A3 3 0 0 1 61 92V96A3 3 0 0 1 58 99H52A3 3 0 0 1 49 96V92A3 3 0 0 1 52 89Z" fill="#3a3f4b" opacity=".7"/>
    <path d="M70 89H76A3 3 0 0 1 79 92V96A3 3 0 0 1 76 99H70A3 3 0 0 1 67 96V92A3 3 0 0 1 70 89Z" fill="#3a3f4b" opacity=".7"/>
    <path d="M88 89H94A3 3 0 0 1 97 92V96A3 3 0 0 1 94 99H88A3 3 0 0 1 85 96V92A3 3 0 0 1 88 89Z" fill="#3a3f4b" opacity=".7"/>
</svg>
